<svg xmlns="http://www.w3.org/2000/svg" xmlns:xlink="http://www.w3.org/1999/xlink" width="100" zoomAndPan="magnify" viewBox="0 0 75 74.999997" height="100" preserveAspectRatio="xMidYMid meet" version="1.0"><defs><clipPath id="db37e43570"><path d="M 2 0 L 75 0 L 75 64 L 2 64 Z M 2 0 " clip-rule="nonzero"/></clipPath><clipPath id="373f8ae580"><path d="M 18.457031 84.285156 L -12.410156 29.828125 L 56.425781 -9.1875 L 87.292969 45.273438 Z M 18.457031 84.285156 " clip-rule="nonzero"/></clipPath><clipPath id="f00c99de01"><path d="M 18.457031 84.285156 L -12.410156 29.828125 L 56.425781 -9.1875 L 87.292969 45.273438 Z M 18.457031 84.285156 " clip-rule="nonzero"/></clipPath><clipPath id="5ca1a237cd"><path d="M 18 38 L 32 38 L 32 52 L 18 52 Z M 18 38 " clip-rule="nonzero"/></clipPath><clipPath id="522a118fc5"><path d="M 22.699219 53.503906 L 16.28125 42.175781 L 27.605469 35.757812 L 34.027344 47.085938 Z M 22.699219 53.503906 " clip-rule="nonzero"/></clipPath><clipPath id="57d4338763"><path d="M 22.699219 53.503906 L 16.28125 42.175781 L 27.605469 35.757812 L 34.027344 47.085938 Z M 22.699219 53.503906 " clip-rule="nonzero"/></clipPath></defs><g clip-path="url(#db37e43570)"><g clip-path="url(#373f8ae580)"><g clip-path="url(#f00c99de01)"><path fill="#d82148" d="M 26.636719 8.753906 L 27.480469 24.148438 L 9.277344 34.464844 C 8.835938 34.714844 8.542969 35.082031 8.40625 35.574219 L 2.875 55.640625 C 2.808594 55.875 2.789062 56.113281 2.820312 56.359375 C 2.847656 56.601562 2.925781 56.832031 3.046875 57.042969 C 3.167969 57.257812 3.324219 57.441406 3.515625 57.589844 C 3.710938 57.742188 3.925781 57.847656 4.164062 57.914062 L 24.21875 63.476562 C 24.710938 63.609375 25.179688 63.550781 25.621094 63.296875 L 43.820312 52.980469 L 56.550781 61.53125 C 56.835938 61.722656 57.15625 61.828125 57.5 61.839844 C 57.847656 61.855469 58.171875 61.777344 58.472656 61.605469 L 71.265625 54.355469 C 71.480469 54.234375 71.660156 54.078125 71.808594 53.886719 C 71.960938 53.691406 72.066406 53.480469 72.132812 53.242188 C 72.199219 53.007812 72.214844 52.769531 72.183594 52.527344 C 72.15625 52.285156 72.078125 52.058594 71.960938 51.847656 L 42.910156 0.589844 C 42.789062 0.378906 42.632812 0.195312 42.441406 0.046875 C 42.246094 -0.101562 42.035156 -0.210938 41.800781 -0.277344 C 41.5625 -0.339844 41.324219 -0.359375 41.082031 -0.328125 C 40.839844 -0.300781 40.613281 -0.226562 40.402344 -0.105469 L 27.605469 7.148438 C 27.308594 7.304688 27.074219 7.53125 26.902344 7.816406 C 26.726562 8.105469 26.640625 8.417969 26.636719 8.753906 Z M 57.648438 57.839844 L 47.402344 50.949219 L 62.40625 42.445312 L 67.851562 52.058594 Z M 42.996094 49.214844 L 24.460938 59.722656 L 6.910156 54.855469 L 11.75 37.296875 L 47.878906 16.820312 L 60.589844 39.242188 Z M 40.617188 4.003906 L 46.066406 13.617188 L 31.0625 22.117188 L 30.414062 9.789062 Z M 66.769531 31.507812 L 64.957031 28.304688 L 74.550781 22.863281 L 76.367188 26.070312 Z M 59.507812 18.695312 L 57.695312 15.488281 L 67.289062 10.050781 L 69.105469 13.253906 Z M 59.507812 18.695312 " fill-opacity="1" fill-rule="nonzero"/></g></g></g><g clip-path="url(#5ca1a237cd)"><g clip-path="url(#522a118fc5)"><g clip-path="url(#57d4338763)"><path fill="#d82148" d="M 21.941406 38.96875 C 22.316406 38.757812 22.703125 38.582031 23.109375 38.449219 C 23.515625 38.316406 23.929688 38.222656 24.355469 38.167969 C 24.777344 38.117188 25.203125 38.105469 25.628906 38.136719 C 26.058594 38.167969 26.476562 38.242188 26.886719 38.355469 C 27.300781 38.46875 27.695312 38.621094 28.078125 38.816406 C 28.460938 39.007812 28.820312 39.234375 29.15625 39.496094 C 29.496094 39.761719 29.800781 40.054688 30.082031 40.378906 C 30.359375 40.699219 30.605469 41.046875 30.816406 41.421875 C 31.027344 41.792969 31.199219 42.179688 31.335938 42.585938 C 31.46875 42.992188 31.5625 43.40625 31.613281 43.832031 C 31.667969 44.257812 31.675781 44.683594 31.644531 45.109375 C 31.613281 45.535156 31.542969 45.953125 31.429688 46.367188 C 31.3125 46.777344 31.160156 47.175781 30.96875 47.554688 C 30.777344 47.9375 30.550781 48.296875 30.285156 48.636719 C 30.023438 48.972656 29.730469 49.28125 29.40625 49.558594 C 29.082031 49.839844 28.734375 50.082031 28.363281 50.292969 C 27.992188 50.503906 27.601562 50.675781 27.195312 50.8125 C 26.789062 50.945312 26.375 51.039062 25.953125 51.089844 C 25.527344 51.144531 25.101562 51.15625 24.675781 51.125 C 24.25 51.09375 23.832031 51.019531 23.417969 50.90625 C 23.007812 50.792969 22.609375 50.636719 22.226562 50.445312 C 21.84375 50.253906 21.484375 50.027344 21.148438 49.765625 C 20.8125 49.5 20.503906 49.207031 20.226562 48.882812 C 19.945312 48.558594 19.699219 48.210938 19.488281 47.839844 C 19.277344 47.46875 19.105469 47.078125 18.972656 46.675781 C 18.839844 46.269531 18.746094 45.851562 18.691406 45.429688 C 18.640625 45.003906 18.628906 44.578125 18.660156 44.152344 C 18.691406 43.726562 18.765625 43.308594 18.878906 42.894531 C 18.992188 42.484375 19.144531 42.085938 19.335938 41.703125 C 19.53125 41.324219 19.757812 40.964844 20.019531 40.625 C 20.28125 40.289062 20.578125 39.980469 20.898438 39.703125 C 21.222656 39.421875 21.570312 39.175781 21.941406 38.96875 Z M 21.941406 38.96875 " fill-opacity="1" fill-rule="nonzero"/></g></g></g></svg>