<svg xmlns="http://www.w3.org/2000/svg" xmlns:xlink="http://www.w3.org/1999/xlink" width="700" zoomAndPan="magnify" viewBox="0 0 525 525.000007" height="700" preserveAspectRatio="xMidYMid meet" version="1.0"><defs><clipPath id="b804be7602"><path d="M 6.097656 119 L 211 119 L 211 345 L 6.097656 345 Z M 6.097656 119 " clip-rule="nonzero"/></clipPath><clipPath id="971510a2aa"><path d="M 314 119 L 518.75 119 L 518.75 301 L 314 301 Z M 314 119 " clip-rule="nonzero"/></clipPath><clipPath id="cda0577c0c"><path d="M 218 80.1875 L 306 80.1875 L 306 168 L 218 168 Z M 218 80.1875 " clip-rule="nonzero"/></clipPath><clipPath id="2004ce2ac2"><path d="M 76 307 L 486 307 L 486 443.996094 L 76 443.996094 Z M 76 307 " clip-rule="nonzero"/></clipPath></defs><g clip-path="url(#b804be7602)"><path fill="#d83f87" d="M 34.253906 243.386719 C 34.253906 190.015625 109.46875 145.316406 210.417969 133.707031 C 209.375 129.53125 208.816406 125.175781 208.816406 120.671875 C 208.816406 120.367188 208.835938 120.058594 208.835938 119.753906 C 93.128906 131.914062 6.328125 182.644531 6.328125 243.386719 C 6.328125 284.699219 46.496094 321.378906 108.582031 344.4375 C 111.808594 340.042969 114.230469 335.023438 115.652344 329.589844 C 65.898438 308.945312 34.253906 277.996094 34.253906 243.386719 Z M 34.253906 243.386719 " fill-opacity="1" fill-rule="nonzero"/></g><g clip-path="url(#971510a2aa)"><path fill="#d83f87" d="M 315.863281 119.765625 C 315.875 120.070312 315.886719 120.375 315.886719 120.683594 C 315.886719 125.175781 315.328125 129.539062 314.285156 133.714844 C 415.234375 145.324219 490.449219 190.015625 490.449219 243.394531 C 490.449219 257.515625 485.160156 271.011719 475.550781 283.457031 C 482.285156 288.917969 487.191406 294.773438 490.277344 300.992188 C 508.230469 283.71875 518.382812 264.136719 518.382812 243.386719 C 518.382812 182.644531 431.570312 131.914062 315.863281 119.765625 Z M 315.863281 119.765625 " fill-opacity="1" fill-rule="nonzero"/></g><g clip-path="url(#cda0577c0c)"><path fill="#d83f87" d="M 305.878906 123.761719 C 305.878906 125.1875 305.808594 126.613281 305.667969 128.03125 C 305.527344 129.453125 305.320312 130.863281 305.042969 132.261719 C 304.761719 133.660156 304.417969 135.042969 304.003906 136.410156 C 303.589844 137.773438 303.109375 139.117188 302.566406 140.4375 C 302.019531 141.753906 301.410156 143.042969 300.738281 144.300781 C 300.066406 145.558594 299.335938 146.78125 298.542969 147.96875 C 297.75 149.15625 296.902344 150.300781 295.996094 151.402344 C 295.09375 152.507812 294.136719 153.5625 293.128906 154.570312 C 292.121094 155.582031 291.066406 156.539062 289.964844 157.441406 C 288.863281 158.347656 287.71875 159.199219 286.535156 159.992188 C 285.347656 160.785156 284.125 161.515625 282.871094 162.1875 C 281.613281 162.863281 280.324219 163.472656 279.007812 164.015625 C 277.691406 164.5625 276.351562 165.042969 274.984375 165.457031 C 273.621094 165.871094 272.242188 166.21875 270.84375 166.496094 C 269.445312 166.773438 268.035156 166.984375 266.617188 167.125 C 265.199219 167.265625 263.777344 167.332031 262.351562 167.332031 C 260.925781 167.332031 259.503906 167.265625 258.085938 167.125 C 256.664062 166.984375 255.257812 166.773438 253.859375 166.496094 C 252.460938 166.21875 251.078125 165.871094 249.714844 165.457031 C 248.351562 165.042969 247.011719 164.5625 245.695312 164.015625 C 244.375 163.472656 243.089844 162.863281 241.832031 162.1875 C 240.574219 161.515625 239.355469 160.785156 238.167969 159.992188 C 236.984375 159.199219 235.839844 158.347656 234.738281 157.441406 C 233.636719 156.539062 232.582031 155.582031 231.574219 154.570312 C 230.566406 153.5625 229.609375 152.507812 228.703125 151.402344 C 227.800781 150.300781 226.953125 149.15625 226.160156 147.96875 C 225.367188 146.78125 224.636719 145.558594 223.964844 144.300781 C 223.292969 143.042969 222.683594 141.753906 222.136719 140.4375 C 221.589844 139.117188 221.113281 137.773438 220.699219 136.410156 C 220.285156 135.042969 219.9375 133.660156 219.660156 132.261719 C 219.382812 130.863281 219.171875 129.453125 219.035156 128.03125 C 218.894531 126.613281 218.824219 125.1875 218.824219 123.761719 C 218.824219 122.335938 218.894531 120.910156 219.035156 119.492188 C 219.171875 118.070312 219.382812 116.660156 219.660156 115.261719 C 219.9375 113.859375 220.285156 112.476562 220.699219 111.113281 C 221.113281 109.746094 221.589844 108.40625 222.136719 107.085938 C 222.683594 105.769531 223.292969 104.480469 223.964844 103.222656 C 224.636719 101.960938 225.367188 100.738281 226.160156 99.554688 C 226.953125 98.367188 227.800781 97.222656 228.703125 96.121094 C 229.609375 95.015625 230.566406 93.960938 231.574219 92.949219 C 232.582031 91.941406 233.636719 90.984375 234.738281 90.078125 C 235.839844 89.175781 236.984375 88.324219 238.167969 87.53125 C 239.355469 86.738281 240.574219 86.007812 241.832031 85.332031 C 243.089844 84.660156 244.375 84.050781 245.695312 83.503906 C 247.011719 82.960938 248.351562 82.480469 249.714844 82.066406 C 251.078125 81.652344 252.460938 81.304688 253.859375 81.027344 C 255.257812 80.746094 256.664062 80.539062 258.085938 80.398438 C 259.503906 80.257812 260.925781 80.1875 262.351562 80.1875 C 263.777344 80.1875 265.199219 80.257812 266.617188 80.398438 C 268.035156 80.539062 269.445312 80.746094 270.84375 81.027344 C 272.242188 81.304688 273.621094 81.652344 274.984375 82.066406 C 276.351562 82.480469 277.691406 82.960938 279.007812 83.503906 C 280.324219 84.050781 281.613281 84.660156 282.871094 85.332031 C 284.125 86.007812 285.347656 86.738281 286.535156 87.53125 C 287.71875 88.324219 288.863281 89.175781 289.964844 90.078125 C 291.066406 90.984375 292.121094 91.941406 293.128906 92.949219 C 294.136719 93.960938 295.09375 95.015625 295.996094 96.121094 C 296.902344 97.222656 297.75 98.367188 298.542969 99.554688 C 299.335938 100.738281 300.066406 101.960938 300.738281 103.222656 C 301.410156 104.480469 302.019531 105.769531 302.566406 107.085938 C 303.109375 108.40625 303.589844 109.746094 304.003906 111.113281 C 304.417969 112.476562 304.761719 113.859375 305.042969 115.261719 C 305.320312 116.660156 305.527344 118.070312 305.667969 119.492188 C 305.808594 120.910156 305.878906 122.335938 305.878906 123.761719 Z M 305.878906 123.761719 " fill-opacity="1" fill-rule="nonzero"/></g><g clip-path="url(#2004ce2ac2)"><path fill="#d83f87" d="M 373.339844 379.4375 L 374.59375 379.207031 L 374.601562 379.183594 L 376.761719 378.753906 C 466.28125 361.015625 485.074219 335.644531 485.074219 317.484375 L 485.074219 317.199219 C 485.042969 313.847656 484.378906 310.652344 483.199219 307.59375 C 438.660156 344.851562 356.535156 369.84375 262.570312 369.84375 C 260.9375 369.84375 259.328125 369.8125 257.695312 369.800781 C 205.84375 369.324219 157.757812 361.25 117.84375 347.71875 C 109.648438 360.160156 96.394531 368.96875 81.015625 371.214844 C 77.960938 371.65625 75.992188 374.734375 76.824219 377.71875 C 84.101562 403.914062 96.039062 426.257812 111.027344 442.277344 C 112.132812 443.457031 113.746094 444.039062 115.347656 443.859375 C 134.667969 441.707031 153.144531 437.027344 169.714844 429.980469 C 191.246094 420.828125 208.648438 408.175781 220.351562 393.179688 C 230.652344 393.082031 240.851562 392.832031 250.941406 392.449219 C 272.992188 391.617188 294.492188 390.109375 315.148438 387.917969 C 317.359375 387.683594 319.550781 387.441406 321.722656 387.1875 C 335.035156 385.671875 347.898438 383.855469 360.117188 381.789062 Z M 373.339844 379.4375 " fill-opacity="1" fill-rule="nonzero"/></g><path fill="#d83f87" d="M 360.140625 253.179688 C 347.921875 251.113281 335.046875 249.300781 321.730469 247.78125 C 319.550781 247.53125 317.359375 247.285156 315.148438 247.054688 C 294.28125 244.839844 272.570312 243.320312 250.300781 242.5 C 239.964844 242.121094 229.527344 241.867188 218.972656 241.78125 C 207.046875 227.242188 189.675781 214.988281 168.429688 206.160156 C 152.195312 199.421875 134.171875 194.929688 115.355469 192.832031 C 113.753906 192.652344 112.144531 193.234375 111.039062 194.414062 C 96.046875 210.433594 84.113281 232.789062 76.832031 258.972656 C 76 261.964844 77.992188 265.023438 81.066406 265.476562 C 106.84375 269.261719 126.640625 291.480469 126.640625 318.339844 C 126.640625 323.464844 125.914062 328.410156 124.5625 333.09375 C 162.359375 347.296875 209.40625 355.808594 260.464844 356.039062 C 261.171875 356.039062 261.867188 356.050781 262.570312 356.050781 C 354.460938 356.050781 433.648438 329.222656 469.78125 290.5625 C 449.039062 273.777344 410.671875 262.925781 376.773438 256.207031 L 374.613281 255.785156 L 374.601562 255.765625 L 373.347656 255.535156 Z M 247.359375 321.09375 C 237.3125 322.359375 228.863281 313.902344 230.125 303.839844 C 230.992188 296.984375 236.519531 291.449219 243.367188 290.585938 C 253.417969 289.320312 261.867188 297.777344 260.601562 307.835938 C 259.738281 314.703125 254.207031 320.238281 247.359375 321.09375 Z M 295.050781 321.09375 C 285 322.359375 276.550781 313.902344 277.816406 303.839844 C 278.679688 296.984375 284.210938 291.449219 291.054688 290.597656 C 301.105469 289.332031 309.554688 297.789062 308.289062 307.847656 C 307.425781 314.703125 301.894531 320.226562 295.050781 321.09375 Z M 342.738281 321.09375 C 332.6875 322.359375 324.238281 313.902344 325.503906 303.839844 C 326.367188 296.984375 331.898438 291.449219 338.746094 290.585938 C 348.792969 289.320312 357.242188 297.777344 355.980469 307.835938 C 355.113281 314.703125 349.585938 320.226562 342.738281 321.09375 Z M 342.738281 321.09375 " fill-opacity="1" fill-rule="nonzero"/></svg>